<svg width="309" height="349" viewBox="0 0 309 349" fill="none" xmlns="http://www.w3.org/2000/svg">
<path d="M56.2004 298.6C58.1004 283.8 66.5004 258.9 71.6004 252.2C77.2004 244.9 79.5004 242.6 98.2004 236.3C99.2004 231.3 102.9 218.7 107.3 213.4C114 203.3 132.3 201 137.8 202.2C137.8 202.2 167.4 191.8 201.5 191.8C212.3 194.2 224.8 199.1 231.6 209.4C236.2 216.2 231 218.4 233.3 224.6C233.9 226.2 247.9 234.2 253.6 239C256.2 241.1 259.1 246.4 261.1 253.3C265.1 267.4 260.8 286.9 265.8 303.9C275.4 336.7 294.9 346.5 294.9 346.5H36.5004C36.7004 346.4 52.1004 329.8 56.2004 298.6Z" fill="white"/>
<path d="M57.7 298.8C59.7 285.7 63.7 272.7 68.8 260.5C71.3 254.6 75.1 248.9 80.4 245.4C83.1 243.7 86.1 242.4 89.2 241.1C92.3 239.9 95.5 238.8 98.6 237.7C99.1 237.5 99.5 237.1 99.6 236.6C100 234.6 100.5 232.7 101.1 230.7C103.7 222.6 106.5 213.6 114.1 208.9C119.9 205.4 126.8 203.7 133.5 203.4C134.8 203.4 136.2 203.4 137.4 203.6H137.8C137.9 203.6 138.1 203.6 138.2 203.5C143 201.2 148.3 199.8 153.5 198.4C169.1 194.8 185.4 193.3 201.4 193.2C211.2 195.5 224.9 200.9 230.9 210.9C231.9 212.5 232.4 214.1 232.2 215.9C232 217.9 231.3 220.1 231.8 222.2C232 223.1 232.2 224.1 232.6 224.9C233.4 226 234.7 226.7 235.7 227.4C240.9 230.8 246.2 233.8 251.2 237.3C252.9 238.5 254.5 239.6 255.7 241.3C259.2 246.3 261.3 252.3 262.2 258.3C263.8 270.5 262.2 282.9 263.8 295.1C265.6 307.3 270.3 319.1 276.9 329.5C281.5 336.5 287.1 343 294.2 347.5L294.9 344.7H36.5L37.6 347.2C40.6 343.8 43 340.1 45.2 336.2C52 324.8 56 311.9 57.7 298.8ZM54.7 298.4C53.6 306.9 51.5 315.3 48.3 323.3C45.1 331.2 41.1 338.9 35.5 345.4C34.7 346.3 35.4 348 36.6 347.9H295C295.8 347.9 296.5 347.2 296.5 346.4C296.5 345.8 296.2 345.3 295.7 345.1C294.1 344.2 292.5 342.9 291 341.6C277.9 329.8 269.7 312.3 267 294.9C264.7 278.6 269 261 261.7 245.5C260 241.9 257.9 238.1 254.5 235.8C248.3 231.2 241.5 227.8 235.4 223.3C235.3 223.3 235.3 223.2 235.3 223.2C235.4 223.3 235.5 223.5 235.5 223.6C234.9 222.2 234.7 221 234.9 219.4C235.2 217.4 235.7 214.7 235 212.6C234.7 211.4 234.1 210.3 233.5 209.4C226.3 198.6 213.6 193.8 201.5 191.1C198.1 191.2 194.6 190.6 191.2 190.6C186.5 190.6 181.7 191.3 177 191.9C163.5 194 150.5 197.6 137.2 200.5L138.1 200.4C135 199.8 132.1 200.1 129.1 200.5C109.9 203.4 103.4 211.8 98.2 229.7C97.6 231.7 97.1 233.7 96.6 235.8L97.6 234.6C88 238 77.2 241.1 71.1 250C68.9 252.7 67.3 255.9 65.9 259.1C60.8 271.9 56.8 284.8 54.7 298.4Z" fill="black"/>
<path d="M213.8 232.8C206.4 248.6 194.9 262 181.2 272.6C180.7 273 181.2 273.8 181.8 273.5C194 267.7 204.3 257.8 210.4 245.8C212.4 241.8 214.1 237.5 214.7 233C214.9 232.5 214.1 232.3 213.8 232.8Z" fill="black"/>
<path d="M96.6997 236.1C96.3997 252.8 103.2 269.9 116.2 280.7C116.5 281 116.9 280.9 117.2 280.6C117.5 280.3 117.4 279.9 117.1 279.6C114.2 276.8 111.3 273.9 109.1 270.5C104.5 263.9 101.7 256.1 100.4 248.2C99.7997 244.3 99.3997 240.1 99.6997 236.2C99.7997 234.3 96.7997 234.1 96.6997 236.1Z" fill="black"/>
<path d="M155.6 275.8C157.9 283.9 159.8 292.7 158.7 301.1C158.4 303 161.3 303.5 161.7 301.5C162.2 296.9 161.6 292.4 160.8 288C159.9 283.6 158.8 279.4 157.3 275.2C156.9 274.2 155.2 274.7 155.6 275.8Z" fill="black"/>
<path d="M123.8 274.3C120.5 281.4 118.2 288.8 116.4 296.3C116.2 297.1 116.7 297.9 117.5 298.1C118.3 298.3 119.1 297.8 119.3 297C120.3 291.4 121.6 285.8 123.4 280.3C124 278.5 124.6 276.7 125.3 274.9C125.7 274 124.3 273.3 123.8 274.3Z" fill="black"/>
<path d="M231.2 224.2C227.5 244.4 213.3 261.5 196.2 272.4C190.4 276.1 184.2 279.3 177.8 281.9C177.4 282.1 177.2 282.5 177.4 282.9C177.5 283.3 178 283.5 178.3 283.3C184.9 280.9 191.3 277.9 197.3 274.3C209.5 267.1 220.2 257.1 227.4 244.9C231.1 238.6 234 232 235.4 224.8C235.6 223.6 234.8 222.5 233.6 222.3C232.5 222 231.3 222.9 231.2 224.2Z" fill="black"/>
<path d="M161.6 303.3C164.4 303 166.4 300.4 165.8 297.6L164.7 292.3C164.3 290.2 162.3 288.7 160.2 289C158.1 289.2 156.4 291 156.4 293.2V298.6C156.3 301.4 158.7 303.6 161.6 303.3Z" fill="black"/>
<path d="M115.5 299.6C118.2 300.6 121.1 299 121.8 296.2L123.1 290.9C123.6 288.8 122.5 286.7 120.4 285.9C118.4 285.2 116.1 286.1 115.2 288L112.8 292.9C111.6 295.6 112.8 298.7 115.5 299.6Z" fill="black"/>
<path d="M245.8 346.4C245.8 346.4 246.7 324.1 249.7 318.1" stroke="black" stroke-width="5.1257" stroke-miterlimit="10" stroke-linecap="round" stroke-linejoin="round"/>
<path d="M69.2998 296.6C69.2998 296.6 63.6998 328 65.8998 346.4" stroke="black" stroke-width="5.1257" stroke-miterlimit="10" stroke-linecap="round" stroke-linejoin="round"/>
<path d="M85.4002 326.8C85.4002 326.8 100.2 329 113.2 328.4" stroke="black" stroke-width="5.1257" stroke-miterlimit="10" stroke-linecap="round" stroke-linejoin="round"/>
<path d="M199.9 220.6C201.3 216.6 201.9 212.5 201.6 208.3C201.6 207.9 201.3 207.7 200.9 207.7C200.6 207.7 200.3 208 200.3 208.3C200 212.1 198.9 216 197.1 219.3C196.2 221.3 199.2 222.6 199.9 220.6Z" fill="black"/>
<path d="M132.3 225.9C135.1 219.6 142 216.4 148.1 214.2C151.9 213 156.1 212.1 160.1 211.5C169.8 210 183.5 207.7 193.2 206.7C193.3 206.7 193.3 206.5 193.2 206.5C190.4 206.2 187.6 206.2 184.8 206.2C176.4 206.4 168 207.3 159.7 208.6C151.4 209.9 142.5 212.4 136.2 218.4C134.2 220.5 132.4 222.9 131.9 225.8C131.8 226.1 132.2 226.2 132.3 225.9Z" fill="black"/>
<path d="M126.001 247.6C128.101 257.9 141.701 264.1 164.601 254.8C188.401 245.2 198.701 222.3 201.301 215.5C187.201 189.1 197.001 170.8 197.001 170.8C164.501 168 136.101 206 136.101 206L131.701 224.8C131.301 226.4 130.501 227.8 129.301 228.8C127.201 232.5 124.701 241 126.001 247.6Z" fill="white"/>
<path d="M201.8 215.8C199.9 212.9 198.7 209.5 197.9 206.2C196.4 199.3 195.9 192.3 195.8 185.3V182.7C196.1 180.1 197 177.4 198 175C199.3 171.8 194.6 169.8 193.1 173C192.9 173.4 192.9 174.1 192.9 174.5C192.6 188.1 192 205.6 200.6 216.9C201.2 217.5 202.4 216.6 201.8 215.8Z" fill="black"/>
<path d="M135.001 205.8C133.501 206.7 133.001 207.9 132.801 209.1C132.201 211.5 132.401 214.1 131.801 216.6C131.301 219 129.801 221.3 129.401 223.8C128.901 226.4 127.401 231.9 126.801 234.6C126.601 235.2 127.001 235.9 127.701 236C128.101 236.1 128.401 236 128.701 235.8C130.001 234.7 130.601 233.6 131.401 232.2C132.701 229.8 133.601 227.6 134.401 224.9C135.101 222.5 134.801 219.9 135.401 217.4C135.901 215 137.301 212.7 137.801 210.2C138.101 209 138.201 207.7 137.301 206.2C136.701 205.6 135.701 205.4 135.001 205.8Z" fill="black"/>
<path d="M127.8 232.2C146.9 231.2 162.5 225.2 177.7 198.1C164.9 209.4 149.8 213.7 133.9 215.7L131.8 224.9C131.4 226.5 129 231.2 127.8 232.2Z" fill="black"/>
<path d="M128.6 228.5C125.2 234.9 123.2 242.9 125.3 250C126.9 255 131.5 258.7 136.5 260.1C148.1 263.2 161.5 258.3 171.8 252.8C184.5 245.7 193.9 233.8 199.9 220.8C200.3 219.8 198.9 219 198.3 220C196.2 224.2 193.8 228.3 191.1 232C188.4 235.8 185.3 239.3 181.8 242.4C171.6 251.6 157.8 257.3 144 257.3C129.8 256.9 124.4 249.4 127.7 235.6C128.2 233.4 129 231.1 130.1 229.2C130.7 228.4 129.2 227.5 128.6 228.5Z" fill="black"/>
<path d="M89.9004 108.4C88.1004 116.8 87.2004 123.6 92.1004 146C96.9004 168.3 85.2004 172.9 112.9 208.6C124.2 223.2 151.6 219.1 173.8 204C181.3 198.9 184.5 185.8 190.1 176.5C194.5 169.2 196.5 176.8 202.3 170.5C210.2 161.9 219.7 144.6 215 114C207.4 64.4 168.1 58.6 139 64.1C109.7 69.7 94.7004 86.3 89.9004 108.4Z" fill="white"/>
<path d="M197.3 179.4C199.6 175.5 202.6 172.1 205.4 168.5C208.1 164.8 210.3 160.7 212.1 156.5C224 127.3 219.4 86.2001 190.2 69.0001C178.1 62.0001 163.5 60.3001 149.9 61.4001C120.8 63.5001 94.1002 76.9001 87.8002 107.7C84.4002 121.3 89.0002 135.3 91.6002 148.6C92.8002 155.2 91.8002 162 91.9002 168.8C92.0002 175.7 93.9002 182.6 96.5002 189C98.1002 193.4 100.9 197.3 103.8 200.9C108.6 206.7 113.4 212.6 119.5 217.1C120.9 218.1 123.4 218.6 125.1 218.8C129.8 219.5 134.4 219.7 139.1 219.4C157.5 218.6 177.2 209.7 184.6 191.9C184.9 191.2 183.9 190.7 183.5 191.3C173.9 206.5 156.3 214 138.8 215C133.4 215.3 127.9 215.2 122.6 214.1C120 212.8 117.7 210.5 115.5 208.4C110.1 203 104.6 197.2 100.7 190.6C96.0002 181.7 93.4002 172 94.2002 161.9C94.4002 157.4 94.5002 152.7 93.6002 148.2C92.8002 143.7 91.8002 139.4 91.2002 134.8C90.6002 130.4 90.3002 125.9 90.3002 121.5C90.8002 108.6 95.0002 95.3001 103.2 85.3001C121.3 62.8001 164.1 56.9001 188.2 72.3001C203.4 81.7001 210.5 99.3001 212.8 116.4C216.3 136.9 215.3 157.1 199 172L194.2 177C192.3 179.2 195.7 181.8 197.3 179.4Z" fill="black"/>
<path d="M185.501 147.6C185.501 147.6 188.601 132.6 203.201 134.4C215.801 136 220.201 166.2 191.601 174.6" fill="white"/>
<path d="M192.9 161.5C195.2 160.2 196.8 158 196.9 155.3C196.8 153.3 196.5 151 197 149C197.3 147.1 199.3 146.6 200.8 146.7C202.4 147 203.4 149 203.7 150.6C203.7 150.7 203.8 151 203.8 151.1C203.9 151.6 204.7 151.6 204.9 151.1C206.2 147.2 203.3 142.9 199.1 143.4C193.2 143.8 192.4 150 193.5 154.7C194.1 156.7 193.3 158.5 192.2 160.2L192 160.5C191.5 161.1 192.3 161.9 192.9 161.5Z" fill="black"/>
<path d="M112.9 137C111.4 144.1 108.6 150.7 105.1 156.9C102 164.5 110 171.7 117.1 171.4C117.9 171.4 118 170.3 117.3 170.1C112.8 168.7 108.7 165.7 108 161.1C107.7 159.7 108.1 158.5 108.8 157.3C112.1 151.1 114.1 144 113.6 137C113.6 136.5 112.9 136.5 112.9 137Z" fill="black"/>
<path d="M186 147.7C188.3 141.8 193.3 136.2 200 136.3C200.6 136.2 201.6 136.4 202.2 136.4C203.9 136.5 205.3 137.1 206.6 138.3C213 144.7 211.9 156 206.7 163.1C204.9 165.6 202.6 167.8 200 169.6C197.4 171.4 194.5 172.8 191.4 174C190.7 174.2 191 175.3 191.7 175.2C198.4 173.8 204.8 170.5 209.2 165C216 156.8 217.4 143.1 209.3 135.1C207.5 133.5 205 132.3 202.5 132.3C201.7 132.3 200.5 132.1 199.7 132.3C195.5 132.5 191.5 134.6 188.9 137.9C186.6 140.7 185.3 144.1 184.9 147.5C184.9 148.1 185.8 148.3 186 147.7Z" fill="black"/>
<path d="M134.3 159.5C134.3 159.5 143.7 165.4 154.3 165.3C164.9 165.2 166.2 156.9 166.3 152.4C166.3 152.4 164.9 158.9 158.5 161.3C152.2 163.7 134.3 159.5 134.3 159.5Z" fill="black"/>
<path d="M104.101 158.4C104.101 158.4 101.801 161.2 98.7006 163.2C96.6006 164.6 93.8006 163.1 93.8006 160.6C93.8006 160.6 99.6006 160.9 104.101 158.4Z" fill="black"/>
<path d="M130.8 132.8C136.2 132.3 149.8 131.2 155 130.7L159 130.4C162.3 130.2 164.9 133 165.5 136.2C165.7 137.2 165.7 138.9 165.7 139.9V144C165.7 146.5 165.8 149.1 164.9 151.5C163.3 157.1 158.2 161.6 152.2 160.9C151.6 160.8 147.9 160.4 147.2 160.3L139.1 159.4C136.5 159.2 134.1 158.5 131.8 157.1C128.6 155.2 125.5 152.3 125.7 148.2L125.5 144.2C125.3 139.2 123.9 133.3 130.8 132.8ZM130.5 129.5C125.8 129.9 122.6 134.8 122.9 139.3C122.9 139.9 123.1 143.7 123.2 144.4C123.2 145.2 123.4 148.8 123.5 149.5C124 156.3 131.6 161.1 137.8 162C141 162.4 147.7 163.3 150.9 163.7C151.7 163.8 152.8 163.9 153.6 164C154 164 154.9 163.9 155.3 163.9C163.8 162.8 169.2 154.1 169 146C169 144.7 169 141.3 169 139.9C169 139.2 169 137.4 168.9 136.7C168.6 133.2 166.7 129.8 163.5 127.9C162.1 127.1 160.4 126.7 158.7 126.8L154.6 127.2C149.6 127.8 135.8 129.1 130.5 129.5Z" fill="black"/>
<path d="M107.3 131.1C105.1 130.8 94.3004 129.6 92.3004 129.4C91.8004 129.4 90.5004 129.2 90.1004 129.2C85.8004 128.6 83.8004 133.3 83.4004 136.8C83.2004 139.9 83.4004 142.9 83.3004 145.9C83.3004 148 83.5004 150.1 84.0004 152.1C85.3004 157.5 89.1004 163.2 95.4004 161.4C96.9004 161.1 99.9004 160.7 101.3 160.4L102.8 160.1C105.7 159.6 108.1 157.6 109.7 155.4C112.7 151.9 112.1 147.2 112.4 143C112.8 138.8 112.7 132.3 107.3 131.1ZM106.9 134C110 135.4 109.2 140.1 109.2 142.9L109 148.9C108.9 152.7 105.9 156.5 102.3 157.5C101.4 157.7 98.9004 158.2 97.9004 158.4L95.0004 159C87.8004 161.3 85.0004 151.3 85.1004 145.8C85.4004 141.2 84.0004 135.7 87.3004 132C88.1004 131.2 88.9004 131 89.8004 131.2C90.3004 131.3 91.6004 131.5 92.0004 131.6C94.0004 132 104.8 133.7 106.9 134Z" fill="black"/>
<path d="M167.4 140.4C168.2 142.2 168.9 142 170.3 142L173.2 141.9C176.9 141.7 181 141.4 184.7 140.9C186.7 140.6 188.8 140.3 190.8 139.8C191.6 139.6 192.1 138.8 191.9 138C191.7 137.3 191.1 136.8 190.4 136.9L184.6 137.2L178.8 137.4C176.9 137.5 172 137.6 170.1 137.7C169.1 137.7 168.2 137.8 167.2 137.5C166.8 137.4 166.4 137.6 166.3 138C166.2 138.2 166.3 138.3 166.3 138.5L167.4 140.4Z" fill="black"/>
<path d="M124.8 138.3C121.2 136.3 111.7 133.5 109.9 138.9C109.1 140.3 111.2 141.6 112.1 140.2C112.1 140.4 112.6 140.2 112.8 140.2C116.6 139.9 120.5 140.5 124.3 140.8C125.9 141 126.2 138.9 124.8 138.3Z" fill="black"/>
<path d="M85.3734 73.793C83.5734 69.593 83.5734 64.993 86.5734 60.993C95.2734 49.493 122.173 58.193 137.173 53.393C159.673 46.093 187.573 45.1931 203.973 72.1931C208.073 78.9931 210.073 80.893 215.873 86.293C221.873 91.893 226.573 102.193 226.973 116.293C227.873 144.593 205.673 169.193 205.673 169.193C204.573 170.693 203.573 171.993 202.673 173.093C194.673 182.693 192.173 201.193 194.573 171.993C219.473 162.393 214.973 134.493 202.873 132.993C190.073 131.393 186.073 142.793 185.373 145.593C176.773 140.093 179.873 128.393 180.873 117.493C174.173 114.493 168.473 107.293 165.473 100.793C162.173 105.393 158.173 108.993 153.373 109.393C148.273 109.893 145.273 105.593 144.273 99.493C137.673 108.193 125.973 118.993 107.573 121.093C98.7734 122.093 91.4734 118.393 86.5734 112.293C85.2734 112.493 84.0734 112.593 82.8734 112.493C69.9734 111.193 55.5734 85.093 85.3734 73.793Z" fill="black"/>
</svg>
