<svg width="404" height="402" viewBox="0 0 404 402" fill="none" xmlns="http://www.w3.org/2000/svg">
<g filter="url(#filter0_d_157_1551)">
<ellipse cx="209.921" cy="180.117" rx="149.189" ry="147.487" fill="#FFF8F8"/>
<path d="M358.61 180.117C358.61 261.29 292.045 327.104 209.921 327.104C127.797 327.104 61.2314 261.29 61.2314 180.117C61.2314 98.9436 127.797 33.1299 209.921 33.1299C292.045 33.1299 358.61 98.9436 358.61 180.117Z" stroke="#FFF8F8"/>
</g>
<path d="M141.532 281.661C144.04 277.876 145.625 273.438 146.681 269.131C148.661 260.125 149.321 250.989 149.453 241.853V238.459C149.057 235.066 147.869 231.542 146.549 228.409C144.832 224.233 151.038 221.622 153.018 225.799C153.282 226.321 153.282 227.235 153.282 227.757C153.678 245.507 154.47 268.348 143.116 283.097C142.324 283.88 140.74 282.705 141.532 281.661Z" fill="black"/>
<path d="M229.725 268.609C231.705 269.784 232.366 271.35 232.63 272.916C233.422 276.049 233.158 279.442 233.95 282.705C234.61 285.838 236.59 288.84 237.119 292.103C237.779 295.496 239.759 302.675 240.551 306.199C240.815 306.982 240.287 307.896 239.363 308.026C238.835 308.157 238.439 308.026 238.043 307.765C236.326 306.329 235.534 304.894 234.478 303.066C232.762 299.934 231.573 297.063 230.517 293.538C229.593 290.406 229.989 287.013 229.197 283.75C228.537 280.617 226.688 277.615 226.028 274.352C225.632 272.786 225.5 271.089 226.688 269.131C227.481 268.348 228.801 268.087 229.725 268.609Z" fill="black"/>
<path d="M239.231 303.066C214.014 301.761 193.418 293.93 173.35 258.559C190.249 273.308 210.185 278.92 231.178 281.531L233.95 293.539C234.478 295.627 237.647 301.761 239.231 303.066Z" fill="black"/>
<path d="M289.269 141.483C291.645 152.447 292.834 161.322 286.364 190.559C280.027 219.664 295.474 225.668 258.903 272.264C243.984 291.32 207.809 285.968 178.499 266.26C168.597 259.603 164.372 242.505 156.979 230.367C151.17 220.839 148.529 230.759 140.872 222.536C130.441 211.311 117.899 188.731 124.104 148.792C134.138 84.0546 186.024 76.4845 224.444 83.6631C263.128 90.9722 282.932 112.638 289.269 141.483Z" fill="#FFF8F8"/>
<path d="M147.473 234.152C144.436 229.062 140.475 224.624 136.779 219.925C133.214 215.096 130.309 209.745 127.933 204.263C112.222 166.151 118.295 112.508 156.847 90.0586C172.822 80.9222 192.098 78.7034 210.053 80.1391C248.473 82.88 283.724 100.37 292.041 140.57C296.53 158.32 290.457 176.593 287.024 193.952C285.44 202.566 286.76 211.442 286.628 220.317C286.496 229.323 283.988 238.329 280.555 246.682C278.443 252.425 274.746 257.515 270.917 262.214C264.58 269.784 258.243 277.485 250.189 283.358C248.341 284.663 245.04 285.316 242.796 285.577C236.59 286.49 230.517 286.751 224.312 286.36C200.019 285.316 174.01 273.699 164.24 250.467C163.844 249.553 165.164 248.901 165.692 249.684C178.367 269.523 201.604 279.312 224.708 280.617C231.837 281.009 239.099 280.878 246.096 279.442C249.529 277.746 252.566 274.744 255.47 272.003C262.6 264.955 269.861 257.385 275.01 248.77C281.215 237.154 284.648 224.494 283.592 211.311C283.328 205.438 283.196 199.303 284.384 193.43C285.44 187.557 286.76 181.944 287.553 175.94C288.345 170.198 288.741 164.324 288.741 158.581C288.081 141.744 282.536 124.385 271.709 111.333C247.813 81.9664 191.306 74.2657 159.487 94.3657C139.419 106.635 130.045 129.606 127.009 151.925C122.388 178.681 123.708 205.046 145.228 224.494L151.566 231.02C154.074 233.891 149.585 237.285 147.473 234.152Z" fill="black"/>
<path d="M163.051 192.647C163.051 192.647 158.959 173.069 139.683 175.418C123.048 177.506 117.238 216.923 154.998 227.887" fill="#FFF8F8"/>
<path d="M153.282 210.789C150.245 209.092 148.133 206.221 148.001 202.697C148.133 200.086 148.529 197.085 147.869 194.474C147.473 191.994 144.832 191.342 142.852 191.472C140.739 191.864 139.419 194.474 139.023 196.562C139.023 196.693 138.891 197.085 138.891 197.215C138.759 197.868 137.703 197.868 137.439 197.215C135.722 192.125 139.551 186.512 145.096 187.165C152.886 187.687 153.942 195.779 152.49 201.914C151.698 204.524 152.754 206.873 154.206 209.092L154.47 209.484C155.13 210.267 154.074 211.311 153.282 210.789Z" fill="black"/>
<path d="M258.903 178.812C260.883 188.079 264.58 196.693 269.201 204.785C273.294 214.705 262.732 224.102 253.358 223.71C252.301 223.71 252.169 222.275 253.094 222.014C259.035 220.186 264.448 216.271 265.372 210.267C265.768 208.44 265.24 206.873 264.316 205.307C259.959 197.215 257.318 187.948 257.979 178.812C257.979 178.159 258.903 178.159 258.903 178.812Z" fill="black"/>
<path d="M162.392 192.778C159.355 185.077 152.754 177.768 143.908 177.898C143.116 177.768 141.796 178.029 141.004 178.029C138.759 178.159 136.911 178.942 135.195 180.509C126.745 188.862 128.197 203.611 135.063 212.878C137.439 216.141 140.476 219.012 143.908 221.361C147.341 223.711 151.17 225.538 155.263 227.104C156.187 227.365 155.791 228.801 154.866 228.67C146.021 226.843 137.571 222.536 131.762 215.357C122.784 204.655 120.936 186.774 131.63 176.332C134.006 174.244 137.307 172.678 140.608 172.678C141.664 172.678 143.248 172.417 144.304 172.678C149.849 172.939 155.13 175.679 158.563 179.987C161.6 183.641 163.316 188.079 163.844 192.516C163.844 193.3 162.656 193.561 162.392 192.778Z" fill="black"/>
<path d="M230.65 208.179C230.65 208.179 218.239 215.879 204.244 215.749C190.25 215.618 188.533 204.785 188.401 198.912C188.401 198.912 190.25 207.395 198.699 210.528C207.017 213.66 230.65 208.179 230.65 208.179Z" fill="black"/>
<path d="M270.521 206.743C270.521 206.743 273.557 210.397 277.65 213.008C280.422 214.835 284.119 212.877 284.119 209.614C284.119 209.614 276.462 210.006 270.521 206.743Z" fill="black"/>
<path d="M235.27 173.33C228.14 172.677 210.185 171.242 203.319 170.589L198.038 170.197C193.681 169.936 190.249 173.591 189.457 177.768C189.193 179.073 189.193 181.292 189.193 182.597V187.948C189.193 191.211 189.061 194.605 190.249 197.737C192.361 205.046 199.095 210.919 207.016 210.006C207.808 209.875 212.693 209.353 213.617 209.223L224.312 208.048C227.744 207.787 230.913 206.873 233.949 205.046C238.174 202.566 242.267 198.781 242.003 193.43L242.267 188.209C242.531 181.683 244.379 173.982 235.27 173.33ZM235.666 169.023C241.871 169.545 246.096 175.94 245.7 181.814C245.7 182.597 245.436 187.556 245.304 188.47C245.304 189.514 245.04 194.213 244.908 195.127C244.247 204.002 234.213 210.267 226.028 211.442C221.803 211.964 212.957 213.138 208.732 213.66C207.676 213.791 206.224 213.921 205.168 214.052C204.64 214.052 203.451 213.921 202.923 213.921C191.701 212.486 184.572 201.131 184.836 190.558C184.836 188.862 184.836 184.424 184.836 182.597C184.836 181.683 184.836 179.334 184.968 178.42C185.364 173.852 187.872 169.414 192.097 166.934C193.946 165.89 196.19 165.368 198.434 165.499L203.847 166.021C210.449 166.804 228.668 168.501 235.666 169.023Z" fill="black"/>
<path d="M266.296 171.111C269.201 170.719 283.46 169.153 286.1 168.892C286.76 168.892 288.477 168.631 289.005 168.631C294.682 167.848 297.322 173.982 297.851 178.551C298.115 182.597 297.851 186.512 297.983 190.428C297.983 193.169 297.718 195.91 297.058 198.52C295.342 205.568 290.325 213.008 282.007 210.658C280.027 210.267 276.066 209.745 274.218 209.353L272.237 208.962C268.409 208.309 265.24 205.699 263.128 202.827C259.167 198.259 259.959 192.125 259.563 186.643C259.035 181.161 259.167 172.677 266.296 171.111ZM266.824 174.896C262.732 176.723 263.788 182.858 263.788 186.512L264.052 194.343C264.184 199.303 268.145 204.263 272.898 205.568C274.086 205.829 277.386 206.482 278.707 206.743L282.535 207.526C292.041 210.528 295.738 197.476 295.606 190.297C295.21 184.293 297.058 177.115 292.702 172.286C291.645 171.241 290.589 170.98 289.401 171.241C288.741 171.372 287.024 171.633 286.496 171.764C283.856 172.286 269.597 174.504 266.824 174.896Z" fill="black"/>
<path d="M186.949 183.249C185.892 185.599 184.968 185.338 183.12 185.338L179.291 185.207C174.406 184.946 168.993 184.555 164.108 183.902C161.468 183.51 158.695 183.119 156.054 182.466C154.998 182.205 154.338 181.161 154.602 180.117C154.866 179.203 155.658 178.551 156.583 178.681L164.24 179.073L171.898 179.334C174.406 179.464 180.875 179.595 183.384 179.725C184.704 179.725 185.892 179.856 187.213 179.464C187.741 179.334 188.269 179.595 188.401 180.117C188.533 180.378 188.401 180.508 188.401 180.77L186.949 183.249Z" fill="black"/>
<path d="M243.192 180.509C247.945 177.898 260.487 174.244 262.864 181.292C263.92 183.119 261.147 184.816 259.959 182.988C259.959 183.249 259.299 182.988 259.035 182.988C254.018 182.597 248.869 183.38 243.852 183.772C241.739 184.033 241.343 181.292 243.192 180.509Z" fill="black"/>
<path d="M295.245 96.3143C297.622 90.8325 297.622 84.8286 293.661 79.6079C282.175 64.5981 246.66 75.9533 226.856 69.6884C197.15 60.1605 160.315 58.9858 138.662 94.226C133.249 103.101 130.609 105.581 122.951 112.629C115.03 119.938 108.825 133.382 108.296 151.785C107.108 188.722 136.418 220.83 136.418 220.83C137.87 222.788 139.191 224.484 140.379 225.92C150.941 238.45 154.241 262.596 151.073 224.484C118.198 211.955 124.14 175.54 140.115 173.582C157.014 171.494 162.295 186.373 163.219 190.027C174.574 182.849 170.481 167.578 169.16 153.351C178.006 149.436 185.532 140.038 189.492 131.555C193.849 137.559 199.13 142.257 205.468 142.779C212.201 143.432 216.162 137.82 217.482 129.858C226.196 141.213 241.643 155.309 265.936 158.05C277.554 159.355 287.192 154.526 293.661 146.564C295.377 146.825 296.962 146.956 298.546 146.825C315.577 145.129 334.589 111.063 295.245 96.3143Z" fill="black"/>
<defs>
<filter id="filter0_d_157_1551" x="45.7314" y="21.6299" width="328.379" height="324.974" filterUnits="userSpaceOnUse" color-interpolation-filters="sRGB">
<feFlood flood-opacity="0" result="BackgroundImageFix"/>
<feColorMatrix in="SourceAlpha" type="matrix" values="0 0 0 0 0 0 0 0 0 0 0 0 0 0 0 0 0 0 127 0" result="hardAlpha"/>
<feOffset dy="4"/>
<feGaussianBlur stdDeviation="7.5"/>
<feComposite in2="hardAlpha" operator="out"/>
<feColorMatrix type="matrix" values="0 0 0 0 0 0 0 0 0 0 0 0 0 0 0 0 0 0 0.3 0"/>
<feBlend mode="normal" in2="BackgroundImageFix" result="effect1_dropShadow_157_1551"/>
<feBlend mode="normal" in="SourceGraphic" in2="effect1_dropShadow_157_1551" result="shape"/>
</filter>
</defs>
</svg>
