<svg width="366" height="385" viewBox="0 0 366 385" fill="none" xmlns="http://www.w3.org/2000/svg">
<g clip-path="url(#clip0_175_1968)">
<rect width="366" height="385" fill="#FFF8F8"/>
<path d="M63.2939 334.968C65.4337 318.365 74.8939 290.433 80.6376 282.917C86.9444 274.727 89.5347 272.147 110.595 265.08C111.721 259.471 115.888 245.336 120.843 239.391C128.389 228.061 148.999 225.481 155.193 226.827C155.193 226.827 188.529 215.16 226.933 215.16C239.096 217.852 253.174 223.349 260.832 234.904C266.012 242.532 260.156 245 262.746 251.955C263.422 253.75 279.189 262.724 285.608 268.109C288.537 270.465 291.803 276.41 294.055 284.151C298.56 299.968 293.717 321.843 299.348 340.913C310.16 377.708 332.121 388.702 332.121 388.702H41.1075C41.3327 388.59 58.6764 369.968 63.2939 334.968Z" fill="#FFF8F8"/>
<path d="M64.9826 335.192C67.235 320.497 71.7398 305.914 77.4836 292.228C80.2991 285.609 84.5787 279.215 90.5476 275.289C93.5884 273.382 96.967 271.923 100.458 270.465C103.95 269.119 107.553 267.885 111.045 266.651C111.608 266.426 112.058 265.978 112.171 265.417C112.621 263.173 113.185 261.042 113.86 258.798C116.788 249.712 119.942 239.615 128.501 234.343C135.033 230.417 142.804 228.51 150.35 228.173C151.814 228.173 153.39 228.173 154.742 228.398H155.192C155.305 228.398 155.53 228.398 155.643 228.285C161.049 225.705 167.018 224.135 172.874 222.564C190.443 218.526 208.8 216.843 226.819 216.731C237.856 219.311 253.285 225.369 260.043 236.587C261.169 238.382 261.732 240.176 261.507 242.196C261.282 244.439 260.493 246.907 261.056 249.263C261.282 250.273 261.507 251.394 261.957 252.292C262.858 253.526 264.322 254.311 265.449 255.096C271.305 258.91 277.274 262.276 282.905 266.202C284.819 267.548 286.621 268.782 287.973 270.689C291.915 276.298 294.28 283.029 295.293 289.76C297.095 303.446 295.293 317.356 297.095 331.042C299.122 344.728 304.416 357.965 311.849 369.632C317.029 377.484 323.336 384.776 331.332 389.824L332.12 386.683H41.1068L42.3457 389.487C45.7243 385.673 48.4272 381.523 50.9049 377.148C58.5632 364.359 63.068 349.888 64.9826 335.192ZM61.6039 334.744C60.3651 344.279 58 353.702 54.3961 362.676C50.7923 371.539 46.2874 380.176 39.9806 387.468C39.0797 388.478 39.868 390.385 41.2195 390.273H332.233C333.134 390.273 333.922 389.487 333.922 388.59C333.922 387.917 333.584 387.356 333.021 387.132C331.219 386.122 329.418 384.664 327.728 383.205C312.975 369.968 303.74 350.337 300.699 330.817C298.109 312.532 302.951 292.789 294.73 275.401C292.816 271.362 290.451 267.099 286.621 264.519C279.639 259.359 271.981 255.545 265.111 250.497C264.998 250.497 264.998 250.385 264.998 250.385C265.111 250.497 265.223 250.721 265.223 250.833C264.548 249.263 264.322 247.917 264.548 246.122C264.885 243.878 265.449 240.849 264.66 238.494C264.322 237.148 263.647 235.914 262.971 234.904C254.862 222.789 240.559 217.404 226.932 214.375C223.103 214.487 219.161 213.814 215.332 213.814C210.039 213.814 204.633 214.599 199.34 215.273C184.136 217.628 169.495 221.667 154.517 224.92L155.53 224.808C152.039 224.135 148.773 224.471 145.394 224.92C123.771 228.173 116.451 237.596 110.594 257.676C109.918 259.92 109.355 262.164 108.792 264.519L109.918 263.173C99.1068 266.987 86.9437 270.465 80.0738 280.449C77.5962 283.478 75.7942 287.067 74.2175 290.657C68.4738 305.016 63.969 319.487 61.6039 334.744Z" fill="black"/>
<path d="M240.784 261.154C232.45 278.879 219.499 293.911 204.07 305.802C203.507 306.25 204.07 307.148 204.745 306.811C218.485 300.305 230.085 289.199 236.955 275.738C239.208 271.25 241.122 266.427 241.798 261.379C242.023 260.818 241.122 260.593 240.784 261.154Z" fill="black"/>
<path d="M108.904 264.856C108.567 283.59 116.225 302.773 130.866 314.888C131.203 315.225 131.654 315.112 131.992 314.776C132.33 314.439 132.217 313.991 131.879 313.654C128.613 310.513 125.347 307.26 122.869 303.446C117.689 296.042 114.535 287.292 113.071 278.43C112.396 274.055 111.945 269.343 112.283 264.968C112.396 262.837 109.017 262.612 108.904 264.856Z" fill="black"/>
<path d="M175.239 309.391C177.829 318.478 179.969 328.35 178.73 337.773C178.392 339.904 181.658 340.465 182.109 338.221C182.672 333.061 181.996 328.013 181.095 323.077C180.081 318.141 178.843 313.43 177.153 308.718C176.703 307.596 174.788 308.157 175.239 309.391Z" fill="black"/>
<path d="M139.425 307.708C135.709 315.673 133.118 323.974 131.091 332.388C130.866 333.285 131.429 334.183 132.33 334.407C133.231 334.631 134.132 334.071 134.357 333.173C135.483 326.891 136.947 320.609 138.975 314.439C139.65 312.42 140.326 310.401 141.114 308.381C141.565 307.372 139.988 306.587 139.425 307.708Z" fill="black"/>
<path d="M260.38 251.506C256.213 274.167 240.221 293.349 220.963 305.577C214.431 309.728 207.448 313.317 200.241 316.234C199.79 316.458 199.565 316.907 199.79 317.356C199.903 317.805 200.466 318.029 200.804 317.805C208.237 315.112 215.445 311.747 222.202 307.708C235.942 299.631 247.992 288.413 256.101 274.728C260.268 267.66 263.534 260.256 265.111 252.18C265.336 250.833 264.435 249.599 263.083 249.375C261.845 249.038 260.493 250.048 260.38 251.506Z" fill="black"/>
<path d="M181.997 340.241C185.15 339.904 187.403 336.987 186.727 333.846L185.488 327.901C185.038 325.545 182.785 323.862 180.42 324.199C178.055 324.423 176.14 326.442 176.14 328.91V334.968C176.028 338.109 178.731 340.577 181.997 340.241Z" fill="black"/>
<path d="M130.078 336.09C133.118 337.212 136.384 335.417 137.173 332.276L138.637 326.33C139.2 323.974 137.961 321.619 135.596 320.721C133.344 319.936 130.753 320.946 129.74 323.077L127.037 328.574C125.685 331.603 127.037 335.08 130.078 336.09Z" fill="black"/>
<path d="M276.823 388.59C276.823 388.59 277.837 363.574 281.215 356.843" stroke="black" stroke-width="5.1257" stroke-miterlimit="10" stroke-linecap="round" stroke-linejoin="round"/>
<path d="M78.0469 332.724C78.0469 332.724 71.7401 367.949 74.2177 388.59" stroke="black" stroke-width="5.1257" stroke-miterlimit="10" stroke-linecap="round" stroke-linejoin="round"/>
<path d="M96.1786 366.603C96.1786 366.603 112.847 369.07 127.487 368.397" stroke="black" stroke-width="5.1257" stroke-miterlimit="10" stroke-linecap="round" stroke-linejoin="round"/>
<path d="M225.13 247.468C226.707 242.981 227.383 238.382 227.045 233.67C227.045 233.221 226.707 232.997 226.257 232.997C225.919 232.997 225.581 233.334 225.581 233.67C225.243 237.933 224.004 242.308 221.977 246.01C220.963 248.253 224.342 249.712 225.13 247.468Z" fill="black"/>
<path d="M148.999 253.414C152.152 246.346 159.923 242.757 166.793 240.289C171.072 238.942 175.802 237.933 180.307 237.26C191.232 235.577 206.661 232.997 217.585 231.875C217.698 231.875 217.698 231.651 217.585 231.651C214.432 231.314 211.278 231.314 208.125 231.314C198.665 231.539 189.204 232.548 179.857 234.007C170.509 235.465 160.486 238.269 153.391 245C151.138 247.356 149.111 250.048 148.548 253.301C148.435 253.638 148.886 253.75 148.999 253.414Z" fill="black"/>
<path d="M141.904 277.757C144.269 289.311 159.586 296.266 185.376 285.833C212.18 275.064 223.78 249.375 226.708 241.747C210.828 212.132 221.865 191.603 221.865 191.603C185.263 188.462 153.279 231.09 153.279 231.09L148.324 252.18C147.873 253.974 146.972 255.545 145.621 256.667C143.256 260.817 140.44 270.353 141.904 277.757Z" fill="#FFF8F8"/>
<path d="M227.27 242.083C225.131 238.83 223.779 235.016 222.878 231.314C221.189 223.574 220.626 215.721 220.513 207.869V204.952C220.851 202.035 221.865 199.007 222.991 196.314C224.455 192.724 219.162 190.481 217.472 194.071C217.247 194.519 217.247 195.305 217.247 195.753C216.909 211.01 216.234 230.641 225.919 243.317C226.595 243.99 227.946 242.981 227.27 242.083Z" fill="black"/>
<path d="M152.04 230.866C150.35 231.875 149.787 233.221 149.562 234.567C148.886 237.26 149.112 240.176 148.436 242.981C147.873 245.673 146.183 248.253 145.733 251.058C145.17 253.974 143.481 260.144 142.805 263.173C142.58 263.846 143.03 264.632 143.818 264.744C144.269 264.856 144.607 264.744 144.945 264.519C146.409 263.285 147.084 262.051 147.985 260.481C149.45 257.789 150.463 255.321 151.364 252.292C152.152 249.599 151.815 246.683 152.49 243.878C153.053 241.186 154.63 238.606 155.193 235.801C155.531 234.455 155.644 232.997 154.63 231.314C153.954 230.641 152.828 230.417 152.04 230.866Z" fill="black"/>
<path d="M143.931 260.481C165.442 259.359 183.01 252.628 200.129 222.228C185.713 234.904 168.708 239.728 150.801 241.971L148.436 252.292C147.985 254.087 145.282 259.359 143.931 260.481Z" fill="black"/>
<path d="M144.831 256.33C141.002 263.51 138.75 272.484 141.115 280.449C142.917 286.058 148.097 290.209 153.728 291.779C166.792 295.257 181.884 289.76 193.484 283.59C207.787 275.625 218.373 262.276 225.13 247.693C225.581 246.571 224.004 245.673 223.328 246.795C220.963 251.507 218.26 256.106 215.22 260.257C212.179 264.519 208.688 268.446 204.746 271.923C193.258 282.244 177.717 288.638 162.175 288.638C146.183 288.189 140.101 279.776 143.818 264.295C144.381 261.827 145.282 259.247 146.521 257.116C147.196 256.218 145.507 255.209 144.831 256.33Z" fill="black"/>
<path d="M101.247 121.603C99.22 131.026 98.2064 138.654 103.725 163.782C109.131 188.798 95.954 193.958 127.15 234.007C139.876 250.385 170.735 245.785 195.737 228.846C204.183 223.125 207.787 208.43 214.094 197.997C219.049 189.808 221.302 198.333 227.834 191.266C236.731 181.619 247.43 162.212 242.137 127.885C233.577 72.2437 189.317 65.7373 156.544 71.9072C123.546 78.1892 106.653 96.811 101.247 121.603Z" fill="#FFF8F8"/>
<path d="M222.202 201.25C224.793 196.875 228.171 193.061 231.325 189.023C234.365 184.872 236.843 180.273 238.87 175.561C252.272 142.805 247.092 96.6989 214.206 77.404C200.579 69.5515 184.136 67.6444 168.82 68.8784C136.047 71.2342 105.977 86.2662 98.882 120.818C95.0529 136.074 100.233 151.779 103.162 166.699C104.513 174.103 103.387 181.731 103.499 189.359C103.612 197.1 105.752 204.84 108.68 212.019C110.482 216.955 113.635 221.33 116.901 225.369C122.307 231.875 127.713 238.494 134.583 243.542C136.16 244.664 138.975 245.225 140.89 245.449C146.183 246.234 151.364 246.459 156.657 246.122C177.379 245.225 199.565 235.241 207.899 215.273C208.237 214.487 207.111 213.926 206.661 214.6C195.849 231.651 176.028 240.064 156.319 241.186C150.237 241.523 144.043 241.41 138.074 240.176C135.146 238.718 132.556 236.138 130.078 233.782C123.997 227.725 117.802 221.218 113.41 213.814C108.117 203.83 105.189 192.949 106.09 181.619C106.315 176.571 106.428 171.298 105.414 166.25C104.513 161.202 103.387 156.378 102.711 151.218C102.035 146.282 101.698 141.234 101.698 136.298C102.261 121.827 106.991 106.907 116.226 95.6893C136.61 70.4489 184.812 63.8303 211.954 81.106C229.072 91.6508 237.068 111.394 239.659 130.577C243.6 153.574 242.474 176.234 224.117 192.949L218.711 198.558C216.571 201.026 220.4 203.942 222.202 201.25Z" fill="black"/>
<path d="M208.913 165.577C208.913 165.577 212.405 148.75 228.847 150.769C243.038 152.564 247.993 186.442 215.783 195.865" fill="#FFF8F8"/>
<path d="M217.247 181.17C219.837 179.712 221.639 177.244 221.752 174.215C221.639 171.971 221.301 169.391 221.865 167.148C222.202 165.016 224.455 164.455 226.144 164.567C227.946 164.904 229.072 167.148 229.41 168.942C229.41 169.055 229.523 169.391 229.523 169.503C229.635 170.064 230.536 170.064 230.762 169.503C232.226 165.128 228.96 160.305 224.23 160.865C217.585 161.314 216.684 168.269 217.923 173.542C218.599 175.785 217.698 177.805 216.459 179.712L216.234 180.048C215.67 180.721 216.571 181.619 217.247 181.17Z" fill="black"/>
<path d="M127.15 153.686C125.461 161.651 122.308 169.055 118.366 176.01C114.875 184.535 123.884 192.612 131.88 192.276C132.781 192.276 132.894 191.042 132.106 190.817C127.038 189.247 122.42 185.882 121.632 180.721C121.294 179.151 121.744 177.805 122.533 176.458C126.249 169.503 128.502 161.539 127.939 153.686C127.939 153.125 127.15 153.125 127.15 153.686Z" fill="black"/>
<path d="M209.476 165.689C212.066 159.071 217.698 152.789 225.243 152.901C225.919 152.789 227.045 153.013 227.721 153.013C229.635 153.125 231.212 153.798 232.676 155.144C239.884 162.324 238.645 175 232.789 182.965C230.762 185.769 228.171 188.237 225.243 190.257C222.315 192.276 219.049 193.846 215.558 195.193C214.769 195.417 215.107 196.651 215.896 196.539C223.441 194.968 230.649 191.266 235.604 185.096C243.263 175.898 244.839 160.529 235.717 151.555C233.69 149.76 230.874 148.414 228.059 148.414C227.158 148.414 225.806 148.189 224.905 148.414C220.175 148.638 215.67 150.994 212.742 154.696C210.152 157.837 208.688 161.651 208.237 165.465C208.237 166.138 209.251 166.362 209.476 165.689Z" fill="black"/>
<path d="M151.25 178.926C151.25 178.926 161.837 185.545 173.774 185.433C185.712 185.321 187.176 176.01 187.289 170.962C187.289 170.962 185.712 178.253 178.505 180.946C171.409 183.638 151.25 178.926 151.25 178.926Z" fill="black"/>
<path d="M117.24 177.692C117.24 177.692 114.649 180.833 111.158 183.077C108.793 184.648 105.64 182.965 105.64 180.16C105.64 180.16 112.172 180.497 117.24 177.692Z" fill="black"/>
<path d="M147.31 148.975C153.391 148.414 168.708 147.18 174.564 146.619L179.069 146.282C182.785 146.058 185.713 149.199 186.389 152.789C186.614 153.91 186.614 155.817 186.614 156.939V161.539C186.614 164.343 186.727 167.26 185.713 169.952C183.911 176.234 178.168 181.282 171.41 180.497C170.735 180.385 166.568 179.936 165.779 179.824L156.657 178.814C153.729 178.59 151.026 177.805 148.436 176.234C144.832 174.103 141.341 170.85 141.566 166.25L141.341 161.763C141.115 156.154 139.539 149.535 147.31 148.975ZM146.972 145.273C141.678 145.721 138.075 151.218 138.412 156.266C138.412 156.939 138.638 161.202 138.75 161.987C138.75 162.885 138.976 166.923 139.088 167.708C139.651 175.337 148.21 180.721 155.193 181.731C158.797 182.18 166.343 183.189 169.946 183.638C170.847 183.75 172.086 183.862 172.987 183.975C173.438 183.975 174.451 183.862 174.902 183.862C184.475 182.628 190.556 172.869 190.331 163.782C190.331 162.324 190.331 158.51 190.331 156.939C190.331 156.154 190.331 154.135 190.218 153.35C189.88 149.423 187.741 145.609 184.137 143.478C182.56 142.58 180.645 142.132 178.731 142.244L174.113 142.692C168.482 143.366 152.941 144.824 146.972 145.273Z" fill="black"/>
<path d="M120.843 147.067C118.365 146.731 106.202 145.385 103.95 145.16C103.387 145.16 101.923 144.936 101.472 144.936C96.6293 144.263 94.3769 149.535 93.9264 153.462C93.7012 156.939 93.9264 160.305 93.8138 163.67C93.8138 166.026 94.039 168.382 94.6021 170.625C96.0662 176.683 100.346 183.077 107.441 181.058C109.13 180.721 112.509 180.273 114.086 179.936L115.775 179.599C119.041 179.039 121.744 176.795 123.546 174.327C126.924 170.401 126.249 165.128 126.587 160.417C127.037 155.705 126.924 148.414 120.843 147.067ZM120.392 150.321C123.884 151.891 122.983 157.164 122.983 160.305L122.757 167.035C122.645 171.298 119.266 175.561 115.212 176.683C114.198 176.907 111.383 177.468 110.256 177.692L106.99 178.365C98.8817 180.946 95.7283 169.728 95.841 163.558C96.1788 158.398 94.6021 152.228 98.3186 148.077C99.2196 147.18 100.121 146.955 101.134 147.18C101.697 147.292 103.161 147.516 103.612 147.628C105.864 148.077 118.027 149.984 120.392 150.321Z" fill="black"/>
<path d="M188.529 157.5C189.429 159.519 190.218 159.295 191.795 159.295L195.061 159.183C199.228 158.958 203.845 158.622 208.012 158.061C210.264 157.724 212.629 157.388 214.882 156.827C215.783 156.603 216.346 155.705 216.121 154.808C215.896 154.023 215.22 153.462 214.431 153.574L207.899 153.91L201.367 154.135C199.228 154.247 193.709 154.359 191.569 154.471C190.443 154.471 189.429 154.583 188.303 154.247C187.853 154.135 187.402 154.359 187.29 154.808C187.177 155.032 187.29 155.144 187.29 155.369L188.529 157.5Z" fill="black"/>
<path d="M140.552 155.144C136.497 152.901 125.798 149.76 123.771 155.817C122.87 157.388 125.235 158.846 126.249 157.276C126.249 157.5 126.812 157.276 127.037 157.276C131.317 156.939 135.709 157.612 139.989 157.949C141.791 158.173 142.128 155.817 140.552 155.144Z" fill="black"/>
<path d="M96.1485 82.7807C94.1214 78.0692 94.1214 72.9089 97.5 68.4218C107.298 55.5211 137.593 65.2807 154.486 59.8961C179.826 51.707 211.248 50.6974 229.717 80.9859C234.335 88.6141 236.587 90.7455 243.119 96.8032C249.877 103.085 255.17 114.64 255.62 130.457C256.634 162.204 231.632 189.8 231.632 189.8C230.393 191.483 229.267 192.941 228.253 194.175C219.244 204.944 216.428 225.697 219.131 192.941C247.174 182.172 242.106 150.874 228.479 149.191C214.063 147.396 209.558 160.185 208.77 163.326C199.084 157.156 202.576 144.031 203.702 131.803C196.156 128.438 189.737 120.361 186.358 113.069C182.642 118.229 178.137 122.268 172.731 122.717C166.987 123.278 163.609 118.454 162.483 111.611C155.05 121.37 141.873 133.486 121.15 135.842C111.24 136.963 103.018 132.813 97.5 125.97C96.0359 126.194 94.6845 126.306 93.333 126.194C78.8049 124.736 62.5874 95.457 96.1485 82.7807Z" fill="black"/>
</g>
<defs>
<clipPath id="clip0_175_1968">
<rect width="366" height="385" fill="white"/>
</clipPath>
</defs>
</svg>
