<svg width="366" height="358" viewBox="0 0 366 358" fill="none" xmlns="http://www.w3.org/2000/svg">
<g clip-path="url(#clip0_175_1968)">
<rect width="366" height="358" fill="#FFF8F8"/>
<path d="M67.3212 365.4H320.221C320.221 365.4 316.121 324.2 300.521 291.3C294.821 279.3 292.921 261.7 281.621 254C270.021 246.1 245.321 239.8 236.721 238.8C231.921 238.2 233.021 237.8 229.621 236.9C228.521 239.9 217.421 269.3 190.821 280.1C167.921 289.4 154.321 283.2 152.221 272.9C150.921 266.3 155.021 255.5 157.121 252C158.321 251 159.121 249.5 159.521 248L160.321 244.7C158.521 244.3 156.821 243.8 155.021 243.3C154.121 243.5 153.121 243.4 152.321 243.9C143.921 248.5 118.621 255 105.421 268.9C100.221 274.3 92.1212 293.5 90.8212 306C87.1212 340.3 67.3212 365.4 67.3212 365.4Z" fill="#FFF8F8"/>
<path d="M65.9208 366C140.921 366.2 246.221 367.1 320.121 366.8C321.021 366.8 321.721 366 321.621 365.1C320.721 358 319.521 351.1 318.121 344.1C314.421 325 308.821 306.2 300.421 288.7C297.021 280.5 295.321 271.9 291.221 263.9C288.821 259.1 285.221 254.5 280.421 251.8C272.721 247.2 264.221 244.3 255.721 241.7C250.621 240.2 245.421 238.8 240.221 237.8C237.621 237.2 235.021 237.3 232.621 236.3C231.321 235.8 228.821 234.3 228.021 236.2C220.721 255.1 206.621 273 186.921 279.7C176.721 283.4 159.021 286.5 153.821 274C152.221 269.3 153.721 264.2 155.121 259.5C155.921 257.1 156.921 254.6 158.121 252.6L157.821 252.9C159.621 251.4 160.621 249 160.921 246.8L161.421 244.8C161.621 244 161.121 243.2 160.321 243C158.521 242.7 156.721 242.1 154.921 241.6C153.921 241.6 152.321 241.8 151.021 242.5C140.021 247.6 127.521 251.3 117.021 257.7C111.121 261.2 105.121 265.3 101.321 271.2C94.3208 282.9 89.8208 296.2 88.5208 309.7C85.7208 329 77.9209 347.5 66.7209 363.4L66.3209 363.9L66.1208 364.1L66.0208 364.2C66.0208 364.2 66.0208 364.1 65.9208 364.4C65.8208 365 65.8208 365.7 65.9208 366ZM68.6208 364.7C68.8208 365 68.8208 365.7 68.6208 366C68.4208 366.2 68.5208 366.1 68.5208 366.1L68.6208 366L68.8209 365.7L69.2209 365.2C75.5209 355.6 80.7208 345.3 84.5208 334.6C87.5208 326.7 89.7209 318.5 90.9209 310.1C91.3209 307.1 91.8208 303.1 92.5208 300.2C94.8208 290.6 98.5208 281 103.821 272.7C105.521 270 108.021 267.9 110.521 265.9C118.421 259.9 127.721 256.2 136.921 252.6L146.321 249.1C149.421 247.9 153.121 246.6 155.021 244.7H154.221C156.021 245.3 157.821 245.8 159.621 246.2L158.521 244.4L158.021 246.4C157.621 248.2 157.221 249.8 155.821 251C155.721 251.1 155.621 251.2 155.521 251.3C152.821 256.2 151.221 261.3 150.421 266.8C148.721 276.3 154.721 283.8 163.921 285.6C176.621 288.1 191.821 282.6 202.321 275.5C215.521 266.2 225.021 252.4 230.821 237.5L229.021 238.4C229.921 238.7 230.521 239 231.421 239.4C232.321 239.9 233.421 240.2 234.421 240.4C234.321 241 234.621 239.2 234.221 241.6C236.121 241.8 237.621 241.9 239.421 242.3C244.521 243.1 249.621 244.3 254.621 245.7C261.321 247.5 267.921 249.7 274.121 252.6C277.221 254.1 280.221 255.7 282.521 257.8C284.921 259.9 286.821 262.7 288.421 265.7C293.121 274.8 295.421 285.7 300.221 294.9C310.221 317.2 315.821 341.5 318.521 365.8L320.021 364.2C247.421 363.9 142.421 364.3 68.6208 364.7Z" fill="black"/>
<path d="M148.521 300C152.021 301 164.221 288.3 166.721 286.1C169.021 288.7 185.221 307 193.221 305.8C202.021 304.5 224.521 289.4 235.921 265.7C242.221 252.7 242.421 244.8 241.721 240.5C241.421 238.5 240.821 237.2 240.521 236.5C239.521 234.2 232.321 225.3 230.521 225.4V225.5C229.621 235.1 226.521 244.4 221.321 252.5C214.921 262.4 204.821 274.3 190.721 280C167.821 289.3 155.921 280.1 153.921 269.8C152.621 263.2 154.921 255.4 157.021 251.9C158.221 250.9 159.021 249.4 159.421 247.9L160.221 244.6C158.421 244.2 156.721 243.7 154.921 243.2C154.421 243 153.821 242.9 153.321 242.7C153.021 243.1 152.621 243.5 152.321 243.9C148.121 248.7 143.721 255.3 141.321 266.5C137.321 284.4 144.621 298.8 148.521 300Z" fill="black"/>
<path d="M167.021 285.5C167.021 285.5 159.721 289.7 159.921 293.2C160.121 296.7 158.021 307.8 158.021 307.8" stroke="black" stroke-width="3" stroke-miterlimit="10" stroke-linecap="round" stroke-linejoin="round"/>
<path d="M167.121 298.8C165.796 298.8 164.721 297.725 164.721 296.4C164.721 295.075 165.796 294 167.121 294C168.446 294 169.521 295.075 169.521 296.4C169.521 297.725 168.446 298.8 167.121 298.8Z" fill="black"/>
<path d="M166.321 308.2C164.996 308.2 163.921 307.125 163.921 305.8C163.921 304.474 164.996 303.4 166.321 303.4C167.647 303.4 168.721 304.474 168.721 305.8C168.721 307.125 167.647 308.2 166.321 308.2Z" fill="black"/>
<path d="M270.721 365.4L275.221 328.3" stroke="#544D4D" stroke-width="3" stroke-miterlimit="10" stroke-linecap="round" stroke-linejoin="round"/>
<path d="M96.0208 315.7C96.0208 315.7 99.0208 323 98.1208 330.3C97.2208 337.6 94.6208 348.3 98.3208 365.4" stroke="#544D4D" stroke-width="3" stroke-miterlimit="10" stroke-linecap="round" stroke-linejoin="round"/>
<path d="M230.521 225.4C230.521 225.4 198.221 215.4 153.221 242.6C153.221 242.6 140.821 276 148.521 281.1C156.221 286.2 180.421 286.7 197.321 281.1C214.321 275.6 236.121 248.1 230.521 225.4Z" fill="black"/>
<path d="M149.526 265.757C151.891 277.311 167.207 284.266 192.998 273.833C219.801 263.064 231.401 237.375 234.33 229.747C218.45 200.132 229.487 179.603 229.487 179.603C192.885 176.462 160.9 219.09 160.9 219.09L155.945 240.18C155.495 241.974 154.594 243.545 153.242 244.667C150.877 248.817 148.062 258.353 149.526 265.757Z" fill="#FFF8F8"/>
<path d="M234.892 230.083C232.752 226.83 231.401 223.016 230.5 219.314C228.81 211.574 228.247 203.721 228.135 195.869V192.952C228.473 190.035 229.486 187.007 230.612 184.314C232.076 180.724 226.783 178.481 225.094 182.071C224.869 182.519 224.869 183.305 224.869 183.753C224.531 199.01 223.855 218.641 233.541 231.317C234.216 231.99 235.568 230.981 234.892 230.083Z" fill="black"/>
<path d="M159.661 218.866C157.972 219.875 157.409 221.221 157.184 222.567C156.508 225.26 156.733 228.176 156.058 230.981C155.494 233.673 153.805 236.253 153.355 239.058C152.791 241.974 151.102 248.144 150.426 251.173C150.201 251.846 150.652 252.632 151.44 252.744C151.891 252.856 152.228 252.744 152.566 252.519C154.03 251.285 154.706 250.051 155.607 248.481C157.071 245.789 158.085 243.321 158.986 240.292C159.774 237.599 159.436 234.683 160.112 231.878C160.675 229.186 162.252 226.606 162.815 223.801C163.153 222.455 163.265 220.997 162.252 219.314C161.576 218.641 160.45 218.417 159.661 218.866Z" fill="black"/>
<path d="M151.552 248.481C173.063 247.359 190.632 240.628 207.75 210.228C193.335 222.904 176.329 227.728 158.422 229.971L156.057 240.292C155.607 242.087 152.904 247.359 151.552 248.481Z" fill="black"/>
<path d="M152.453 244.33C148.624 251.51 146.371 260.484 148.736 268.449C150.538 274.058 155.719 278.209 161.35 279.779C174.414 283.257 189.505 277.76 201.105 271.59C215.408 263.625 225.995 250.276 232.752 235.693C233.202 234.571 231.626 233.673 230.95 234.795C228.585 239.507 225.882 244.106 222.841 248.257C219.8 252.519 216.309 256.446 212.367 259.923C200.88 270.244 185.338 276.638 169.797 276.638C153.804 276.189 147.723 267.776 151.439 252.295C152.002 249.827 152.903 247.247 154.142 245.116C154.818 244.218 153.129 243.209 152.453 244.33Z" fill="black"/>
<path d="M108.869 109.603C106.842 119.026 105.828 126.654 111.346 151.782C116.752 176.798 103.576 181.958 134.772 222.007C147.498 238.385 178.356 233.785 203.358 216.846C211.805 211.125 215.409 196.43 221.715 185.997C226.671 177.808 228.923 186.333 235.455 179.266C244.352 169.619 255.051 150.212 249.758 115.885C241.199 60.2437 196.939 53.7373 164.166 59.9072C131.168 66.1892 114.275 84.811 108.869 109.603Z" fill="#FFF8F8"/>
<path d="M229.824 189.25C232.414 184.875 235.793 181.061 238.946 177.023C241.987 172.872 244.465 168.273 246.492 163.561C259.894 130.805 254.713 84.6989 221.828 65.404C208.201 57.5515 191.758 55.6444 176.441 56.8784C143.669 59.2342 113.599 74.2662 106.504 108.818C102.674 124.074 107.855 139.779 110.783 154.699C112.135 162.103 111.008 169.731 111.121 177.359C111.234 185.1 113.373 192.84 116.302 200.019C118.104 204.955 121.257 209.33 124.523 213.369C129.929 219.875 135.335 226.494 142.205 231.542C143.781 232.664 146.597 233.225 148.511 233.449C153.805 234.234 158.985 234.459 164.278 234.122C185.001 233.225 207.187 223.241 215.521 203.273C215.859 202.487 214.733 201.926 214.282 202.6C203.471 219.651 183.649 228.064 163.94 229.186C157.859 229.523 151.665 229.41 145.696 228.176C142.768 226.718 140.177 224.138 137.7 221.782C131.618 215.725 125.424 209.218 121.032 201.814C115.739 191.83 112.81 180.949 113.711 169.619C113.937 164.571 114.049 159.298 113.036 154.25C112.135 149.202 111.008 144.378 110.333 139.218C109.657 134.282 109.319 129.234 109.319 124.298C109.882 109.827 114.612 94.9073 123.847 83.6893C144.232 58.4489 192.434 51.8303 219.575 69.106C236.694 79.6508 244.69 99.3944 247.28 118.577C251.222 141.574 250.096 164.234 231.739 180.949L226.333 186.558C224.193 189.026 228.022 191.942 229.824 189.25Z" fill="black"/>
<path d="M216.535 153.577C216.535 153.577 220.026 136.75 236.469 138.769C250.659 140.564 255.615 174.442 223.405 183.865" fill="#FFF8F8"/>
<path d="M224.869 169.17C227.459 167.712 229.261 165.244 229.374 162.215C229.261 159.971 228.923 157.391 229.486 155.148C229.824 153.016 232.076 152.455 233.766 152.567C235.568 152.904 236.694 155.148 237.032 156.942C237.032 157.055 237.144 157.391 237.144 157.503C237.257 158.064 238.158 158.064 238.383 157.503C239.847 153.128 236.581 148.305 231.851 148.865C225.207 149.314 224.306 156.269 225.544 161.542C226.22 163.785 225.319 165.805 224.08 167.712L223.855 168.048C223.292 168.721 224.193 169.619 224.869 169.17Z" fill="black"/>
<path d="M134.772 141.686C133.083 149.651 129.929 157.055 125.987 164.01C122.496 172.535 131.506 180.612 139.502 180.276C140.403 180.276 140.516 179.042 139.727 178.817C134.659 177.247 130.042 173.882 129.253 168.721C128.916 167.151 129.366 165.805 130.154 164.458C133.871 157.503 136.123 149.539 135.56 141.686C135.56 141.125 134.772 141.125 134.772 141.686Z" fill="black"/>
<path d="M217.098 153.689C219.688 147.071 225.319 140.789 232.865 140.901C233.54 140.789 234.667 141.013 235.342 141.013C237.257 141.125 238.834 141.798 240.298 143.144C247.506 150.324 246.267 163 240.41 170.965C238.383 173.769 235.793 176.237 232.865 178.257C229.937 180.276 226.671 181.846 223.179 183.193C222.391 183.417 222.729 184.651 223.517 184.539C231.063 182.968 238.271 179.266 243.226 173.096C250.884 163.898 252.461 148.529 243.339 139.555C241.311 137.76 238.496 136.414 235.68 136.414C234.779 136.414 233.428 136.189 232.527 136.414C227.797 136.638 223.292 138.994 220.364 142.696C217.774 145.837 216.309 149.651 215.859 153.465C215.859 154.138 216.873 154.362 217.098 153.689Z" fill="black"/>
<path d="M158.872 166.926C158.872 166.926 169.458 173.545 181.396 173.433C193.334 173.321 194.798 164.01 194.911 158.962C194.911 158.962 193.334 166.253 186.126 168.946C179.031 171.638 158.872 166.926 158.872 166.926Z" fill="black"/>
<path d="M124.861 165.692C124.861 165.692 122.271 168.833 118.78 171.077C116.415 172.648 113.261 170.965 113.261 168.16C113.261 168.16 119.793 168.497 124.861 165.692Z" fill="black"/>
<path d="M154.931 136.975C161.013 136.414 176.329 135.18 182.185 134.619L186.69 134.282C190.407 134.058 193.335 137.199 194.011 140.789C194.236 141.91 194.236 143.817 194.236 144.939V149.539C194.236 152.343 194.349 155.26 193.335 157.952C191.533 164.234 185.789 169.282 179.032 168.497C178.356 168.385 174.189 167.936 173.401 167.824L164.279 166.814C161.351 166.59 158.648 165.805 156.057 164.234C152.453 162.103 148.962 158.85 149.187 154.25L148.962 149.763C148.737 144.154 147.16 137.535 154.931 136.975ZM154.593 133.273C149.3 133.721 145.696 139.218 146.034 144.266C146.034 144.939 146.259 149.202 146.372 149.987C146.372 150.885 146.597 154.923 146.71 155.708C147.273 163.337 155.832 168.721 162.815 169.731C166.418 170.18 173.964 171.189 177.568 171.638C178.469 171.75 179.708 171.862 180.609 171.975C181.059 171.975 182.073 171.862 182.523 171.862C192.096 170.628 198.178 160.869 197.952 151.782C197.952 150.324 197.952 146.51 197.952 144.939C197.952 144.154 197.952 142.135 197.84 141.35C197.502 137.423 195.362 133.609 191.758 131.478C190.182 130.58 188.267 130.132 186.352 130.244L181.735 130.692C176.104 131.366 160.562 132.824 154.593 133.273Z" fill="black"/>
<path d="M128.464 135.067C125.987 134.731 113.824 133.385 111.571 133.16C111.008 133.16 109.544 132.936 109.094 132.936C104.251 132.263 101.998 137.535 101.548 141.462C101.323 144.939 101.548 148.305 101.435 151.67C101.435 154.026 101.661 156.382 102.224 158.625C103.688 164.683 107.967 171.077 115.063 169.058C116.752 168.721 120.131 168.273 121.707 167.936L123.397 167.599C126.663 167.039 129.365 164.795 131.167 162.327C134.546 158.401 133.87 153.128 134.208 148.417C134.659 143.705 134.546 136.414 128.464 135.067ZM128.014 138.321C131.505 139.891 130.604 145.164 130.604 148.305L130.379 155.035C130.266 159.298 126.888 163.561 122.833 164.683C121.82 164.907 119.004 165.468 117.878 165.692L114.612 166.365C106.503 168.946 103.35 157.728 103.463 151.558C103.8 146.398 102.224 140.228 105.94 136.077C106.841 135.18 107.742 134.955 108.756 135.18C109.319 135.292 110.783 135.516 111.233 135.628C113.486 136.077 125.649 137.984 128.014 138.321Z" fill="black"/>
<path d="M196.15 145.5C197.051 147.519 197.839 147.295 199.416 147.295L202.682 147.183C206.849 146.958 211.467 146.622 215.634 146.061C217.886 145.724 220.251 145.388 222.503 144.827C223.404 144.603 223.968 143.705 223.742 142.808C223.517 142.023 222.841 141.462 222.053 141.574L215.521 141.91L208.989 142.135C206.849 142.247 201.331 142.359 199.191 142.471C198.065 142.471 197.051 142.583 195.925 142.247C195.474 142.135 195.024 142.359 194.911 142.808C194.799 143.032 194.911 143.144 194.911 143.369L196.15 145.5Z" fill="black"/>
<path d="M148.173 143.144C144.119 140.901 133.42 137.76 131.393 143.817C130.492 145.388 132.857 146.846 133.87 145.276C133.87 145.5 134.434 145.276 134.659 145.276C138.938 144.939 143.331 145.612 147.61 145.949C149.412 146.173 149.75 143.817 148.173 143.144Z" fill="black"/>
<path d="M103.77 70.7807C101.743 66.0692 101.743 60.9089 105.122 56.4218C114.92 43.5211 145.215 53.2807 162.108 47.8961C187.448 39.707 218.869 38.6974 237.339 68.9859C241.957 76.6141 244.209 78.7455 250.741 84.8032C257.498 91.0852 262.791 102.64 263.242 118.457C264.256 150.204 239.254 177.8 239.254 177.8C238.015 179.483 236.889 180.941 235.875 182.175C226.865 192.944 224.05 213.697 226.753 180.941C254.795 170.172 249.727 138.874 236.1 137.191C221.685 135.396 217.18 148.185 216.391 151.326C206.706 145.156 210.197 132.031 211.324 119.803C203.778 116.438 197.358 108.361 193.98 101.069C190.263 106.229 185.758 110.268 180.353 110.717C174.609 111.278 171.23 106.454 170.104 99.6109C162.671 109.37 149.494 121.486 128.772 123.842C118.861 124.963 110.64 120.813 105.122 113.97C103.658 114.194 102.306 114.306 100.955 114.194C86.4264 112.736 70.209 83.457 103.77 70.7807Z" fill="black"/>
</g>
<defs>
<clipPath id="clip0_175_1968">
<rect width="366" height="358" fill="white"/>
</clipPath>
</defs>
</svg>
